<svg id="32f6562b-edbb-435d-9212-fc5aa4588db5" data-name="图层 1" xmlns="http://www.w3.org/2000/svg" viewBox="0 0 800 800"><defs><style>.fadaada7-841d-4968-8842-35504ee55b2b{fill:#e6e6e6;}.c6e82f37-9796-49b2-a13d-018ff5a2f65b{fill:#e93737;}</style></defs><title>car</title><circle class="fadaada7-841d-4968-8842-35504ee55b2b" cx="400" cy="400" r="400"/><path class="c6e82f37-9796-49b2-a13d-018ff5a2f65b" d="M705,279.94a13.77,13.77,0,0,1,11.88,6.25,14.67,14.67,0,0,1,1.87,13.75l-10,30q-2.5,10-13.75,10H658.75a88,88,0,0,1,30,29.37A75.5,75.5,0,0,1,700,409.94v60a76.57,76.57,0,0,1-20,52.5v77.5a29.88,29.88,0,0,1-30,30H590a29.88,29.88,0,0,1-30-30v-50H240v50a29.88,29.88,0,0,1-30,30H150a29.88,29.88,0,0,1-30-30v-77.5a76.57,76.57,0,0,1-20-52.5v-60a75.5,75.5,0,0,1,11.25-40.63,88,88,0,0,1,30-29.37H105q-11.25,0-13.75-10l-10-30a14.64,14.64,0,0,1,1.88-13.75A13.74,13.74,0,0,1,95,279.94h68.75l10-26.25q17.5-46.26,58.75-75a156,156,0,0,1,91.25-28.75h152.5a156,156,0,0,1,91.25,28.75q41.25,28.74,58.75,75l10,26.25Zm-515,200h5q25,0,36.25-2.5Q250,473.69,250,459.94q0-16.26-21.87-38.13T190,399.94q-16.25,0-28.12,11.87T150,439.94q0,16.24,11.88,28.12T190,479.94Zm58.75-197.5L230,329.94H570l-18.75-47.5a80,80,0,0,0-75-52.5H323.75a80,80,0,0,0-75,52.5ZM610,479.94q16.25,0,28.13-11.88T650,439.94q0-16.26-11.87-28.13T610,399.94q-16.25,0-38.12,21.87T550,459.94q0,13.74,18.75,17.5,11.25,2.49,36.25,2.5Z"/></svg>