<svg id="2757da88-cc2b-481f-a630-05c7dad72434" data-name="图层 1" xmlns="http://www.w3.org/2000/svg" viewBox="0 0 900 900"><defs><style>.\31 df37ed8-3e23-4a91-be8a-67798e9ddeea{fill:#e600a0;}.b56a6fbb-1fa1-4cde-9e16-b2ba29d47ef9{fill:#fff;}</style></defs><title>female</title><circle class="1df37ed8-3e23-4a91-be8a-67798e9ddeea" cx="450" cy="450" r="450"/><path class="b56a6fbb-1fa1-4cde-9e16-b2ba29d47ef9" d="M793.78,240.06,760,206.3a6.42,6.42,0,0,0-9,0l-73.76,73.76L609.86,212.7a6.42,6.42,0,0,0-9,0l-33.68,33.68a6.42,6.42,0,0,0,0,9l67.36,67.36L526.1,431A230.33,230.33,0,1,0,569,473.9L677.3,365.58l67.36,67.36a6.42,6.42,0,0,0,9,0l33.68-33.68a6.42,6.42,0,0,0,0-9L720,322.86l73.76-73.76a6.42,6.42,0,0,0,0-9ZM386,783.58c-93.52,0-169.6-76.08-169.6-169.6S292.5,444.38,386,444.38s169.6,76.08,169.6,169.6S479.54,783.58,386,783.58Zm0,0" transform="translate(-50 -50)"/></svg>