<svg id="b1c7bebe-33f3-4849-b973-a8b6cb76e14d" data-name="图层 1" xmlns="http://www.w3.org/2000/svg" viewBox="0 0 900 900"><defs><style>.af241fdd-f522-4a38-8130-1a111ed6466f{fill:#00a0e6;}.c00805e6-4fcb-4ee0-9694-04514e4bbcea{fill:#fff;}</style></defs><title>male</title><circle class="af241fdd-f522-4a38-8130-1a111ed6466f" cx="450" cy="450" r="450"/><path class="c00805e6-4fcb-4ee0-9694-04514e4bbcea" d="M483,116.63,340.48,259.18a4.81,4.81,0,0,0,0,6.79l31.68,31.68a4.8,4.8,0,0,0,6.78,0l90.74-90.74V432.4a230.64,230.64,0,1,0,60.81.05V207.08l90.57,90.57a4.8,4.8,0,0,0,6.78,0L659.52,266a4.8,4.8,0,0,0,0-6.78L517,116.63a24.08,24.08,0,0,0-33.94,0ZM619.92,780.75c-66.13,66.12-173.72,66.12-239.84,0s-66.14-173.73,0-239.85,173.73-66.13,239.85,0,66.13,173.71,0,239.85Zm0,0" transform="translate(-50 -50)"/></svg>