<svg id="89ba0e2a-588d-44c8-8fd2-7965e4fb3504" data-name="图层 1" xmlns="http://www.w3.org/2000/svg" viewBox="0 0 1000 1000"><defs><style>.\39 6861cc8-d45c-4bf7-9fba-4dc5d085b440{fill:#b3b3b3;}</style></defs><title>画板 1</title><path class="96861cc8-d45c-4bf7-9fba-4dc5d085b440" d="M900,500c0,220.91-179.09,400-400,400S100,720.91,100,500,279.09,100,500,100,900,279.09,900,500ZM500,140c-198.82,0-360,161.18-360,360S301.18,860,500,860,860,698.82,860,500,698.82,140,500,140Z"/><path class="96861cc8-d45c-4bf7-9fba-4dc5d085b440" d="M356.66,375.29c-8.28-6.21-11.38-19.66-4.14-29,33.94-43.63,74.52-71.41,147-71.41,83.83,0,157.31,47.61,157.31,129.37,0,108.67-125.22,102.46-125.22,173.87,0,10.35-8.28,18.63-19.67,18.63H486c-10.35,0-19.67-8.28-19.67-18.63,0-113.85,125.23-103.5,125.23-173.87,0-33.12-27.94-65.2-92.11-65.2-46.57,0-72.44,16.56-96.25,46.57-5.92,7.48-17.59,9.31-25.87,4.14S356.66,375.29,356.66,375.29ZM455,680.6c0,25.87,19.66,45.53,44.5,45.53A45.27,45.27,0,0,0,545,680.6c0-25.88-20.7-44.51-45.54-44.51A44.18,44.18,0,0,0,455,680.6Zm43.47-527.82c193.53,0,349.8,155.24,349.8,347.74S690.94,848.25,499.48,848.25,151.75,693,151.75,500.52,308,152.78,498.45,152.78ZM100,500.52C100,721,279,900,499.48,900S900,721,900,500.52,721,100,499.48,100C279,100,100,280.08,100,500.52Z"/></svg>